<svg viewBox="0 0 512 512" xmlns="http://www.w3.org/2000/svg">
<path d="m0,0h512v512h-512z"/>
<g transform="matrix(18.68858,0,0,18.68858,-212.61023,-3482.94135)">
<path d="m35.1067,205.6725c-1.1446-3.835-6.4317-5.9786-11.307-6.8755 .9453,4.2053-.163,7.0321.9108,10.6373 1.1447,3.8435 5.5153,4.0455 6.3427.3392 2.9879,2.7456 5.1273-.5035 4.0535-4.1011z" fill="#fff"/>
<path d="m14.1301,202.4198c2.2362-2.8962 6.0626-4.601 10.3955-3.0401-2.0587,4.8274-.5892,8.2739-2.6733,10.9326-2.2218,2.8344-6.0428,1.0677-5.5599-2.5238-3.4521,1.0603-4.2228-2.7002-2.1623-5.3687z" fill="#fff"/>
<path d="m20.0798,188.6758c3.5851,2.0724 4.6206,6.2897 4.3737,11.1549-4.8545-2.7878-6.2485-.3317-9.7439-1.7777-3.834-1.586-3.0018-6.4533.6167-6.3658-2.3942-3.6316 1.3904-4.9555 4.7535-3.0114z" fill="#fff"/>
<path d="m29.8696,189.0496c-3.7981.9493-5.6647,5.4876-5.6723,10.5571 5.2735-1.3056 7.2801,2.214 10.9163,1.3239 3.8765-.9489 3.4441-5.8017-.5791-6.8984 2.4489-2.9386-1.0405-5.8885-4.6649-4.9826z" fill="#fff"/>
</g>
</svg>
