<svg viewBox="0 0 512 512" xmlns="http://www.w3.org/2000/svg">
<path d="m0,0h512v512h-512z"/>
<g transform="matrix(18.68858,0,0,18.68858,-9766.81133,-40834.02862)">
<g transform="matrix(1.00482,.26924,-.26924,1.00482,592.51692,-152.39854)">
<path d="m530.5378,2188.9279c-2.8279,1.7219-4.8057,5.5575-4.8057,10.0336s1.9779,8.3117 4.8057,10.0336h6.6566c2.8279-1.7219 4.8057-5.5575 4.8057-10.0336s-1.9779-8.3117-4.8057-10.0336h-6.6566z" fill="#fff" stroke="#000" stroke-width=".9613"/>
<path d="m532.7824,2188.6686c-1.4205,1.7664-2.4141,5.7011-2.4141,10.293s.9935,8.5265 2.4141,10.293" fill="none" stroke="#000" stroke-width=".9613"/>
<path d="m527.4211,2191.8327h12.9158" fill="none" stroke="#000" stroke-width=".9613"/>
<path d="m527.2749,2205.5557h13.3855" fill="none" stroke="#000" stroke-width=".9613"/>
<path d="m525.5813,2201.0576h16.5013" fill="none" stroke="#000" stroke-width=".9613"/>
<path d="m525.7093,2196.6357h16.239" fill="none" stroke="#000" stroke-width=".9613"/>
<path d="m534.6811,2188.6686c1.4205,1.7664 2.4141,5.7011 2.4141,10.293s-.9935,8.5265-2.4141,10.293" fill="none" stroke="#000" stroke-width=".9613"/>
</g>
<path d="m541.9083,2189.384 5.5848,1.4964" fill="none" stroke="#fff"/>
<path d="m1083.2794,1972.5625h9.3818v3.9818h-9.3818z" fill="#fff" stroke="#000" transform="rotate(15)"/>
<path d="m546.6935,2192.165c0,1.2803-.5793,2.3181-1.2938,2.3181s-1.2938-1.0378-1.2938-2.3181 .5793-2.3181 1.2938-2.3181 1.2938,1.0379 1.2938,2.3181z" stroke="#fff" stroke-width=".9883" transform="matrix(1.0118,0,0,1.0118,-4.61701,-24.84596)"/>
<path d="m537.1095,2187.364c-5.9976-1.6071-10.6755,6.0228-12.3361,12.2204l.6087,3.0741c2.9979-8.9391 7.4326-13.6186 11.2591-13.202" fill="#fff"/>
</g>
</svg>
