<svg viewBox="0 0 512 512" xmlns="http://www.w3.org/2000/svg">
<path d="m0,0h512v512h-512z"/>
<g transform="matrix(18.68858,0,0,18.68858,-7719.11001,-9551.92984)">
<g transform="translate(368.0542,358.696)">
<path d="m68.8793,156.6193c-1.3688,1.9976-3.0645.9166-4.6909-.1979l-2.6191,3.8222c1.5612,1.0698 3.2851,2.2495 2.0476,4.0555l2.3004,1.5763 5.2625-7.6798-2.3004-1.5763z" fill="#fff"/>
<path d="m64.06,153.2909-11.6164,16.9523 1.8018,1.2347 11.6164-16.9523-1.8018-1.2347z" fill="#fff"/>
<path d="m46.4094,170.6097c-1.3016,1.8994-.1793,4.933 2.4894,6.7618s5.8813,1.7654 7.1828-.134 .201-4.9182-2.4678-6.747-5.9029-1.7803-7.2045.1192z" fill="#fff"/>
<path d="m-145.6098-99.4007h3.1694v1.1171h-3.1694z" transform="matrix(-.8489,-.52856,.52856,-.8489,0,0)"/>
<path d="m-144.6347-100.4223h3.137v1.1171h-3.137z" transform="matrix(-.8489,-.52856,.52856,-.8489,0,0)"/>
<path d="m142.0564,102.1213h5.6018v1.1171h-5.6018z" transform="rotate(31.908)"/>
</g>
<path d="m434.3706,513.2631-6.0925,9.1196" fill="none" stroke="#000"/>
<path d="m421.2466,525.1992 4.0998,2.8611c1.2476.8707-.3813,3.1404-1.5987,2.2908l-4.0997-2.8611c-1.3266-.9258.2896-3.2044 1.5987-2.2908z" fill="#fff" stroke="#000"/>
<path d="m419.8481,546.0116c0,.8994-.7291,1.6285-1.6285,1.6285s-1.6285-.7291-1.6285-1.6285 .7291-1.6285 1.6285-1.6285 1.6285.7291 1.6285,1.6285z" stroke="#fff" stroke-width=".9239" transform="matrix(1.08235,0,0,1.08235,-35.57201,-56.02633)"/>
<path d="m435.5637,520.7659c0,.7579-.6144,1.3723-1.3723,1.3723s-1.3723-.6144-1.3723-1.3723 .6144-1.3723 1.3723-1.3723 1.3723.6144 1.3723,1.3723z" transform="matrix(.83654,0,0,.83654,70.93402,85.19118)"/>
</g>
</svg>
