<svg viewBox="0 0 512 512" xmlns="http://www.w3.org/2000/svg">
<path d="m0,0h512v512h-512z"/>
<g transform="matrix(18.68858,0,0,18.68858,-210.75808,-2214.09999)">
<path d="m23.5762,119.1641-9.0312,2.7812-1.9062,7.1562 3.5-1.5625 .4688,2.0938-1.2188-1.0938-2.1562,2.4688 8.5,8.2174 .7188-3.0299 3.0625,9.1562 9.3125-1.5312 2.5625-11.375-4.6875-8.25-9.125-5.0312z" fill="#fff" fill-rule="evenodd" stroke="#000"/>
<path d="m21.388,127.37v3.2262l5.922,6.8501 5.7452.0442-5.6127-1.812-6.0546-8.3085z" fill-rule="evenodd"/>
<path d="m20.4344,122.3728-1.4878,2.135-.1741,3.9291-1.4557-4.7573 3.1176-1.3068z" fill-rule="evenodd"/>
<path d="m15.522,136.1442 7.1992,4.6686 .2979,3.526-7.4971-8.1945z" fill="#fff" fill-rule="evenodd"/>
</g>
</svg>
