<svg viewBox="0 0 512 512" xmlns="http://www.w3.org/2000/svg">
<path d="m0,0h512v512h-512z"/>
<g transform="matrix(18.68858,0,0,18.68858,-9079.17267,-21806.17134)">
<path d="m491.2987,1174.7438 13.0816,4.5123c5.7479,1.9882 8.446,5.6215 7.6842,7.824l-21.0772-11.4439 .3114-.8924z" fill="#fff"/>
<path d="m493.557,1172.4065c0,0 2.5494,7.4058 4.5124,13.0816 1.9881,5.7479 5.6215,8.446 7.8239,7.6842l-11.4438-21.0771-.8925.3113z" fill="#fff"/>
<path d="m494.6524,1178.2042 6.6835,3.617" fill="none" stroke="#000"/>
<path d="m495.3188,1186.1112c0,1.676-1.97,3.0346-4.4001,3.0346s-4.4001-1.3586-4.4001-3.0346 1.97-3.0346 4.4001-3.0346 4.4001,1.3587 4.4001,3.0346z" stroke="#fff" stroke-width="1.2444" transform="matrix(.26568,.76466,.75454,-.25899,-528.97793,1103.6226)"/>
<path d="m492.7821,1174.7354 8.1709,2.8126" fill="none" stroke="#000"/>
<path d="m495.3188,1186.1112c0,1.676-1.97,3.0346-4.4001,3.0346s-4.4001-1.3586-4.4001-3.0346 1.97-3.0346 4.4001-3.0346 4.4001,1.3587 4.4001,3.0346z" stroke="#fff" stroke-width="1.2444" transform="matrix(.76466,.26568,-.25899,.75454,422.51483,152.2089)"/>
<path d="m-773.7631,1016.7656h1.2512v1.007l-1.5758.025 .3246-1.0325z" fill="#fff" transform="matrix(.5,-.86603,.86603,.5,0,0)"/>
</g>
</svg>
