<svg viewBox="0 0 512 512" xmlns="http://www.w3.org/2000/svg">
<path d="m0,0h512v512h-512z"/>
<g transform="matrix(18.68858,0,0,18.68858,4525.5244,-4117.30572)">
<path d="m-237.1542,246.5342h4.6832c.3223-7.2124 9.1072-6.0208 8.6123,0h3.2961c-.1116-3.4353 1.0482-5.8753 4.2654-9.0463-3.2897,2.63-7.3895,4.627-6.7115-2.2036-2.5901,7.4667-6.159-1.3619-6.7534-9.3942 .5141,7.2491-.8795,18.1484-5.567,7.6546 2.3012,8.6376-.0617,10.376-4.3958,7.1906 2.5409,2.4903 2.7397,3.4413 2.5705,5.7989z" fill="#fff" fill-rule="evenodd"/>
<path d="m524.3197,228.5607c0,.5004-.4056.906-.906.906s-.906-.4056-.906-.906 .4056-.906.906-.906 .906.4056.906.906z" fill="#fff" transform="matrix(1.31214,0,0,1.31214,-916.55715,-77.62001)"/>
<path d="m524.3197,228.5607c0,.5004-.4056.906-.906.906s-.906-.4056-.906-.906 .4056-.906.906-.906 .906.4056.906.906z" fill="#fff" transform="matrix(1.50416,0,0,1.50416,-1026.8157,-105.80315)"/>
<path d="m524.3197,228.5607c0,.5004-.4056.906-.906.906s-.906-.4056-.906-.906 .4056-.906.906-.906 .906.4056.906.906z" fill="#fff" transform="matrix(2.13831,0,0,2.13831,-1340.4808,-257.74561)"/>
<path d="m524.3197,228.5607c0,.5004-.4056.906-.906.906s-.906-.4056-.906-.906 .4056-.906.906-.906 .906.4056.906.906z" fill="#fff" transform="matrix(1.50416,0,0,1.50416,-1010.729,-117.29364)"/>
</g>
</svg>
