<svg viewBox="0 0 512 512" xmlns="http://www.w3.org/2000/svg">
<path d="m0,0h512v512h-512z"/>
<g transform="matrix(18.68858,0,0,18.68858,-1596.74578,-48300.77578)">
<path d="m103.9338,2603.0967 7.65,7.6501" fill="none" stroke="#fff"/>
<path d="m102.9564,2601.4371 2.781,2.7815" fill="none" stroke="#fff"/>
<path d="m90.1665,2585.5686c-.444,1.7283-1.8252,3.2269-3.7402,3.7402-1.1339,1.9639.4033,2.9245 2.9461,1.4564 2.2349,1.385 3.0979,2.3825 4.3987,4.636l2.4202-2.4201c-2.4867-1.1894-3.3627-2.1471-4.6527-4.3823 1.7093-2.9605.3613-4.5285-1.3721-3.0302z" fill="#fff" stroke="#000"/>
<path d="m99.1392,2593.7178c.6285-.6286.6285-1.6477-.0002-2.276s-1.6474-.6287-2.2759-.0003l-4.5841,4.5842c-.6288.6288-.6284,1.6474 8.5e-05,2.2761s1.6476.6285 2.276.0001z" fill="#fff" stroke="#000"/>
<path d="m1903.504,1764.7382h11.4711v4.8699h-11.4711z" fill="none" stroke="#fff" transform="rotate(45)"/>
<path d="m108.2847,2602.8634c.6287-.6286.6288-1.6477 2e-05-2.2762s-1.6476-.6284-2.2761,0l-4.584,4.584c-.6286.6289-.6285,1.6476-.0001,2.2763s1.6477.6286 2.2764-.0001z" fill="#fff" stroke="#000"/>
<path d="m94.7738,2600.7942c0,1.4033-1.1376,2.541-2.541,2.541s-2.541-1.1377-2.541-2.541 1.1376-2.541 2.541-2.541 2.541,1.1377 2.541,2.541z" stroke="#fff" transform="translate(.832,-1.4337)"/>
<path d="m94.7738,2600.7942c0,1.4033-1.1376,2.541-2.541,2.541s-2.541-1.1377-2.541-2.541 1.1376-2.541 2.541-2.541 2.541,1.1377 2.541,2.541z" stroke="#fff" transform="translate(7.9645,-8.5663)"/>
<path d="m96.2294,2594.7101 5.8714,5.8715" fill="none" stroke="#fff"/>
</g>
</svg>
