<svg viewBox="0 0 512 512" xmlns="http://www.w3.org/2000/svg">
<path d="m0,0h512v512h-512z"/>
<g transform="matrix(18.68858,0,0,18.68858,-11802.07113,-702.19212)">
<path d="m636.3038,47.5472c0-12.61 17.5737-12.623 17.5737,0v16.2012h-17.5737v-16.2012z" fill="#fff" stroke="#000"/>
<path d="m647.7031,45.8096h3.0047m-11.1615,0h6.1515" fill="none" stroke="#000"/>
<path d="m643.4128,48.0979h7.295m-11.1615,0h1.9545" fill="none" stroke="#000"/>
<path d="m646.304,50.2551h4.4037m-11.1615,0h5.1256" fill="none" stroke="#000"/>
<path d="m640.375,55.3438c-1.0039,2.3792-.9689,4.7458-.7812,7.125-.3716-1.8824-2.0777-3.2441-3.9375-4.5312 1.318,2.0593 2.3977,4.1914 2.5938,6.5h7.1562c.488-1.6928 1.8871-2.7791 3.4375-3.875-1.9842.1166-3.8782.5716-5.5625,2.1875 .9894-2.1381 2.4105-3.7058 4-5.0938-2.2602-.1668-4.1142,1.0229-5.4688,3.875-1.0053-2.0611-1.1558-4.1264-1.4375-6.1875z" fill-rule="evenodd"/>
<path d="m651.6875,57.25c.6071,1.7759 1.0012,3.6319.8125,5.7188-.5787-1.9936-1.8361-3.1841-3.3125-4.1562 .7068,1.5335 1.3144,2.9791.9375,4.5l1.0312.5938h2.6875v-4.25c-.4036-1.1045-1.1208-1.9061-2.1562-2.4062z" fill-rule="evenodd"/>
</g>
</svg>
